<?xml version="1.0" encoding="iso-8859-1"?>
<!-- Generator: Adobe Illustrator 19.0.0, SVG Export Plug-In . SVG Version: 6.00 Build 0)  -->
<svg version="1.1" id="Layer_1" xmlns="http://www.w3.org/2000/svg" xmlns:xlink="http://www.w3.org/1999/xlink" x="0px" y="0px"
	 viewBox="0 0 512 512" style="enable-background:new 0 0 512 512;" xml:space="preserve">
<path style="fill:#FF5959;" d="M488.79,240.637c-0.059,0.003-0.127-0.007-0.187-0.005c-0.081-0.002-0.162-0.008-0.243-0.008
	c-19.488-0.481-92.209-89.442-109.876-107.108C360.817,115.849,271.857,43.13,271.377,23.641c0-0.082-0.008-0.162-0.008-0.243
	c0-0.06-0.01-0.128-0.005-0.187h-0.004c-0.094-3.808-1.58-7.586-4.486-10.489c-6.004-6.006-15.743-6.006-21.747,0
	c-2.906,2.904-4.391,6.683-4.486,10.489h-0.004c0.004,0.059-0.005,0.127-0.005,0.187c0,0.081-0.008,0.163-0.008,0.243
	c-0.481,19.488-89.441,92.208-107.107,109.875C115.849,151.182,43.128,240.143,23.64,240.624c-0.08,0-0.162,0.005-0.243,0.008
	c-0.06-0.001-0.128,0.009-0.187,0.005v0.003c-3.806,0.094-7.586,1.582-10.491,4.486c-6.006,6.005-6.006,15.743,0,21.748
	c2.904,2.904,6.683,4.39,10.491,4.486v0.003c0.059-0.004,0.127,0.007,0.187,0.005c0.081,0.001,0.163,0.008,0.243,0.008
	c19.488,0.481,92.208,89.441,109.875,107.108c17.668,17.666,106.627,90.387,107.108,109.875c0,0.08,0.007,0.161,0.008,0.243
	c0,0.061,0.01,0.128,0.005,0.188h0.004c0.093,3.806,1.58,7.586,4.486,10.489c6.003,6.006,15.743,6.006,21.747,0
	c2.906-2.904,4.391-6.683,4.486-10.489h0.004c-0.004-0.06,0.005-0.127,0.005-0.188c0.001-0.082,0.008-0.162,0.008-0.243
	c0.481-19.489,89.441-92.209,107.108-109.875c17.668-17.668,90.387-106.626,109.875-107.108c0.08,0,0.162-0.007,0.243-0.008
	c0.061,0.001,0.128-0.01,0.187-0.005v-0.003c3.808-0.095,7.586-1.582,10.491-4.486c6.006-6.005,6.006-15.742,0-21.748
	c-2.904-2.904-6.684-4.391-10.491-4.486L488.79,240.637L488.79,240.637z"/>
<path style="fill:#FFE39C;" d="M328.922,88.86L88.86,328.921c4.298,4.723,8.517,9.42,12.564,13.956l241.453-241.454
	C338.342,97.377,333.646,93.157,328.922,88.86z M211.076,449.585c4.717,4.693,9.106,9.243,12.991,13.526L463.11,224.069
	c-4.282-3.886-8.833-8.276-13.526-12.992L211.076,449.585z M300.925,62.415c-4.717-4.693-9.107-9.244-12.991-13.526L48.891,287.932
	c4.281,3.885,8.833,8.276,13.526,12.992L300.925,62.415z M371.657,127.084L127.084,371.657c2.577,2.827,4.753,5.149,6.431,6.828
	c1.678,1.678,4.003,3.854,6.828,6.431l244.573-244.573c-2.577-2.826-4.753-5.148-6.432-6.828
	C376.808,131.838,374.483,129.662,371.657,127.084z M183.078,423.14L423.14,183.079c-4.297-4.723-8.517-9.419-12.563-13.955
	L169.123,410.577C173.659,414.623,178.356,418.843,183.078,423.14z"/>
<path style="fill:#1E252B;" d="M256.001,512c-6.303,0-12.229-2.455-16.684-6.912c-4.215-4.213-6.651-9.806-6.878-15.776
	c-0.008-0.124-0.013-0.249-0.015-0.372c-0.003-0.059-0.004-0.119-0.005-0.177h-0.001l0.003,0.117
	c-0.004-0.112-0.009-0.217-0.011-0.321c-0.147-1.137-2.224-8.504-28.158-34.173c-16.516-16.348-36.614-34.172-52.764-48.494
	c-10.775-9.556-19.287-17.103-23.782-21.599c-4.497-4.495-12.046-13.009-21.604-23.786c-14.321-16.149-32.145-36.247-48.492-52.762
	c-25.49-25.753-32.931-27.978-34.23-28.157c-0.07-0.002-0.14-0.004-0.211-0.008c-0.034-0.001-0.069-0.002-0.104-0.003
	c-0.114-0.002-0.228-0.007-0.343-0.013c-5.982-0.22-11.588-2.656-15.811-6.881c-4.455-4.455-6.91-10.381-6.91-16.683
	s2.455-12.228,6.911-16.684c4.225-4.225,9.832-6.662,15.815-6.88c0.096-0.005,0.193-0.01,0.289-0.012
	c0.061-0.002,0.123-0.004,0.183-0.005c0.071-0.003,0.154-0.007,0.243-0.008c1.138-0.148,8.507-2.228,34.17-28.156
	c16.346-16.515,34.171-36.613,48.493-52.762c9.558-10.778,17.108-19.291,21.604-23.786c4.495-4.495,13.009-12.046,23.785-21.603
	c16.149-14.322,36.248-32.146,52.762-48.492c25.747-25.485,27.977-32.928,28.157-34.23c0.002-0.074,0.004-0.15,0.008-0.225
	c0.001-0.033,0.002-0.067,0.004-0.1c0.002-0.126,0.008-0.252,0.015-0.377c0.228-5.968,2.663-11.556,6.88-15.771
	C243.772,2.455,249.698,0,256.001,0c6.303,0,12.228,2.455,16.683,6.912c4.216,4.213,6.651,9.806,6.878,15.775
	c0.008,0.124,0.013,0.248,0.015,0.371c0.001,0.031,0.002,0.061,0.003,0.093c0.004,0.097,0.008,0.194,0.01,0.289
	c0.147,1.135,2.22,8.5,28.155,34.171c16.515,16.346,36.613,34.171,52.762,48.492c10.778,9.557,19.29,17.107,23.785,21.603
	c4.497,4.495,12.046,13.009,21.604,23.786c14.322,16.149,32.146,36.248,48.493,52.762c25.474,25.737,32.922,27.976,34.229,28.157
	c0.069,0.002,0.138,0.004,0.208,0.008c0.051,0.001,0.105,0.003,0.157,0.004c0.099,0.002,0.197,0.007,0.295,0.012
	c5.982,0.219,11.587,2.656,15.812,6.881c4.456,4.455,6.911,10.381,6.911,16.683c0,6.302-2.455,12.228-6.912,16.683
	c-4.225,4.225-9.832,6.661-15.815,6.88c-0.102,0.007-0.205,0.01-0.308,0.012c-0.05,0.002-0.102,0.003-0.152,0.005
	c-0.087,0.003-0.171,0.007-0.254,0.008c-1.136,0.147-8.501,2.221-34.17,28.155c-16.345,16.515-34.17,36.612-48.492,52.762
	c-9.558,10.777-17.108,19.291-21.604,23.786c-4.495,4.495-13.007,12.044-23.782,21.599c-16.149,14.322-36.249,32.146-52.764,48.494
	c-25.742,25.48-27.978,32.926-28.158,34.231c-0.002,0.076-0.004,0.152-0.009,0.229c-0.001,0.042-0.002,0.083-0.004,0.125
	c-0.002,0.116-0.008,0.232-0.015,0.347c-0.228,5.968-2.663,11.557-6.88,15.772C268.228,509.545,262.303,512,256.001,512z
	 M248.839,488.242c0.008,0.114,0.013,0.23,0.015,0.345c0.045,1.852,0.784,3.586,2.08,4.881c1.355,1.355,3.153,2.1,5.066,2.1
	c1.913,0,3.711-0.745,5.063-2.098c1.298-1.298,2.037-3.031,2.082-4.883c0.003-0.116,0.008-0.231,0.015-0.346
	c0.001-0.004,0.001-0.009,0.001-0.014l0.001-0.018c0-0.019,0-0.036,0.001-0.054c0.165-6.724,4.184-16.786,32.223-44.654
	c16.982-16.878,37.631-35.19,54.223-49.905c10.152-9.002,18.917-16.777,23.066-20.924c4.148-4.148,11.925-12.917,20.93-23.07
	c14.713-16.591,33.025-37.239,49.902-54.221c27.864-28.036,37.927-32.055,44.65-32.221c0.003,0,0.005,0,0.008,0
	c0.055-0.002,0.108-0.004,0.16-0.005c0.004,0,0.01-0.001,0.014-0.001c0.081-0.004,0.163-0.008,0.245-0.01
	c1.854-0.046,3.59-0.785,4.887-2.082c1.353-1.353,2.099-3.151,2.099-5.064c0-1.913-0.745-3.711-2.098-5.064
	c-1.297-1.297-3.032-2.036-4.887-2.082c-0.09-0.002-0.18-0.005-0.269-0.011c-0.053-0.001-0.112-0.002-0.159-0.005
	c-6.723-0.165-16.785-4.184-44.65-32.221c-16.877-16.981-35.188-37.63-49.903-54.221c-9.004-10.154-16.78-18.922-20.928-23.071
	c-4.148-4.148-12.917-11.924-23.07-20.929c-16.591-14.713-37.239-33.025-54.221-49.903c-28.018-27.846-32.05-37.915-32.221-44.637
	c-0.001-0.046-0.003-0.091-0.005-0.137c-0.005-0.102-0.011-0.206-0.013-0.309c-0.046-1.852-0.784-3.586-2.08-4.881
	c-1.354-1.353-3.153-2.098-5.065-2.098c-1.914,0-3.711,0.745-5.063,2.097c-1.298,1.298-2.037,3.031-2.082,4.884
	c-0.002,0.103-0.007,0.206-0.013,0.308c-0.001,0.046-0.003,0.092-0.005,0.139c-0.172,6.723-4.205,16.792-32.221,44.635
	c-16.981,16.878-37.63,35.188-54.221,49.903c-10.153,9.004-18.922,16.78-23.07,20.928s-11.924,12.917-20.928,23.071
	c-14.714,16.591-33.026,37.239-49.903,54.221c-27.866,28.038-37.927,32.055-44.65,32.221c-0.016,0.001-0.033,0.001-0.049,0.001
	l-0.095,0.003c-0.094,0.005-0.188,0.01-0.284,0.012c-1.853,0.046-3.588,0.785-4.885,2.082c-1.354,1.353-2.099,3.15-2.099,5.064
	s0.745,3.711,2.098,5.064c1.297,1.297,3.032,2.036,4.887,2.082c0.085,0.002,0.171,0.005,0.255,0.01
	c0.057,0.001,0.114,0.003,0.171,0.007h0.001c6.723,0.165,16.785,4.184,44.65,32.221c16.877,16.981,35.188,37.629,49.902,54.221
	c9.004,10.153,16.781,18.922,20.93,23.07c4.148,4.147,12.914,11.922,23.066,20.924c16.591,14.714,37.24,33.026,54.223,49.905
	c28.04,27.867,32.058,37.93,32.224,44.654c0,0.021,0.001,0.04,0.001,0.06v0.007C248.839,488.23,248.839,488.237,248.839,488.242z"/>
<g>
</g>
<g>
</g>
<g>
</g>
<g>
</g>
<g>
</g>
<g>
</g>
<g>
</g>
<g>
</g>
<g>
</g>
<g>
</g>
<g>
</g>
<g>
</g>
<g>
</g>
<g>
</g>
<g>
</g>
</svg>
