<?xml version="1.0" encoding="iso-8859-1"?>
<!DOCTYPE svg PUBLIC "-//W3C//DTD SVG 20010904//EN" "http://www.w3.org/TR/2001/REC-SVG-20010904/DTD/svg10.dtd">
<svg version="1.0" xmlns="http://www.w3.org/2000/svg" xmlns:xlink="http://www.w3.org/1999/xlink" x="0px" y="0px" width="1152px" height="1152px" xml:space="preserve">
<g id="R2D2.png">
<g id="1">
<g id="">
<path style="fill:rgb(0,0,0);" d="M 370.391 69.995 C 359.003 71.4185 341.208 80.6714 331.244 89.9244 C 321.279 99.1773 301.35 117.683 286.403 130.495 C 270.032 145.442 254.373 168.218 245.12 192.418 L 230.885 230.142 L 255.085 225.871 C 296.367 218.042 389.608 219.466 431.603 228.007 C 453.667 232.989 486.408 245.801 504.203 257.189 C 525.555 270.001 541.926 276.407 551.891 273.56 C 566.126 270.001 566.838 266.442 563.279 235.124 C 556.161 176.048 539.079 144.73 493.526 107.007 C 465.055 82.8067 445.126 72.1303 430.891 72.1303 C 420.214 72.1303 406.691 70.7067 400.997 69.995 C 396.014 68.5714 382.491 68.5714 370.391 69.995 M 450.108 92.0597 C 455.091 94.9067 461.497 121.242 463.632 149.713 L 468.614 201.671 L 437.297 198.113 C 420.214 195.977 384.626 193.842 358.291 193.842 C 304.197 193.13 302.773 190.995 319.855 141.171 C 336.938 94.9067 349.038 86.3655 398.15 86.3655 C 422.35 86.3655 445.838 89.2126 450.108 92.0597 "/>
</g>
<g id="">
<path style="fill:rgb(0,0,0);" d="M 352.597 107.718 C 334.803 125.513 334.091 158.966 351.173 173.913 C 369.679 190.995 413.097 189.571 430.891 171.777 C 448.685 153.983 449.397 120.53 432.314 105.583 C 413.808 88.5008 370.391 89.9244 352.597 107.718 "/>
</g>
<g id="">
<path style="fill:rgb(0,0,0);" d="M 255.085 240.107 C 246.544 242.242 236.579 247.936 233.02 252.207 C 222.344 266.442 181.773 430.86 176.791 479.26 L 173.232 524.101 L 267.897 524.813 C 368.967 525.524 426.62 535.489 481.426 563.248 C 497.085 571.789 512.032 576.771 513.455 575.348 C 515.591 573.213 519.15 560.401 521.285 546.166 C 524.132 526.948 522.708 517.695 514.167 511.289 C 501.355 502.036 480.714 424.454 480.714 383.883 C 480.714 351.854 491.391 322.671 510.608 302.03 L 524.844 287.083 L 507.761 275.695 C 471.461 252.207 426.62 241.53 349.038 239.395 C 306.332 237.971 263.626 238.683 255.085 240.107 M 420.214 278.542 C 491.391 294.201 484.273 302.03 405.979 295.624 C 366.832 292.066 314.161 290.642 289.961 291.354 C 255.797 292.777 245.12 290.642 247.255 284.236 C 254.373 264.307 344.055 261.46 420.214 278.542 M 447.261 329.789 C 465.767 336.907 470.75 355.413 452.955 351.142 C 440.855 349.007 281.42 335.483 258.644 335.483 C 247.255 335.483 238.714 332.636 238.714 328.366 C 238.714 314.842 411.673 315.554 447.261 329.789 "/>
</g>
<g id="">
<path style="fill:rgb(0,0,0);" d="M 172.52 272.848 C 146.897 292.777 138.355 354.701 154.726 407.371 C 158.997 423.03 164.691 435.13 166.826 435.13 C 168.961 435.13 178.214 403.813 187.467 365.377 C 196.008 327.654 205.261 289.218 207.397 279.966 C 210.955 267.866 208.82 264.307 198.144 264.307 C 190.314 264.307 178.926 268.577 172.52 272.848 "/>
</g>
<g id="">
<path style="fill:rgb(0,0,0);" d="M 539.791 292.777 C 496.373 319.113 484.985 374.63 504.203 460.042 C 512.032 493.495 514.167 495.63 536.944 497.766 L 560.432 499.901 L 555.45 460.042 C 552.603 437.977 549.755 412.354 547.62 403.813 C 546.197 395.271 547.62 378.901 551.179 367.513 C 555.45 351.142 557.585 361.107 561.144 413.066 C 563.279 450.077 568.261 482.107 571.108 485.666 C 573.955 488.513 593.173 475.701 613.814 457.195 L 650.826 424.454 L 640.861 373.207 C 628.761 311.283 620.932 294.201 597.444 285.66 C 572.532 275.695 565.414 276.407 539.791 292.777 "/>
</g>
<g id="">
<path style="fill:rgb(0,0,0);" d="M 608.832 481.395 C 603.85 487.801 590.326 497.766 580.361 502.748 L 561.144 512.713 L 570.397 572.501 C 586.055 672.148 598.867 687.807 638.014 656.489 L 654.385 643.677 L 640.861 566.095 C 625.914 474.277 622.355 465.024 608.832 481.395 "/>
</g>
<g id="">
<path style="fill:rgb(0,0,0);" d="M 178.926 541.183 C 176.791 544.03 190.314 563.248 208.82 582.466 C 240.85 615.918 245.832 618.054 297.079 626.595 C 402.42 643.677 447.261 637.271 489.967 600.26 C 502.067 589.583 501.355 588.16 472.173 573.213 L 441.567 557.554 L 417.367 579.618 C 398.861 597.413 395.303 598.836 401.708 586.736 C 405.979 578.195 413.097 568.942 416.655 566.807 C 420.926 564.671 423.773 559.689 423.773 556.842 C 423.773 548.301 349.038 534.777 301.35 534.777 L 259.355 534.777 L 270.744 556.842 C 287.114 588.16 279.285 590.295 260.067 560.401 C 246.544 537.624 241.561 534.777 213.803 534.777 C 196.72 534.777 181.061 537.624 178.926 541.183 "/>
</g>
<g id="">
<path style="fill:rgb(0,0,0);" d="M 188.891 612.36 C 171.097 617.342 117.714 684.96 117.714 702.754 C 117.714 714.142 173.232 722.683 205.973 716.989 C 240.138 710.583 260.067 692.077 264.338 662.895 C 267.897 639.407 265.761 636.56 239.426 621.613 C 223.767 613.071 210.244 605.954 208.82 606.666 C 207.397 607.377 198.855 609.513 188.891 612.36 "/>
</g>
<g id="">
<path style="fill:rgb(0,0,0);" d="M 274.303 655.777 C 274.303 674.995 268.608 686.383 229.461 751.154 C 215.226 773.93 205.261 795.283 206.685 798.842 C 208.82 801.689 228.75 805.96 251.526 808.807 C 329.108 817.348 326.973 818.06 331.955 794.571 L 336.938 773.218 L 337.65 792.436 C 338.361 805.248 342.632 812.366 349.038 812.366 C 363.273 812.366 428.044 779.624 434.45 769.66 C 436.585 765.389 429.467 744.036 417.367 721.971 C 405.267 699.907 395.303 674.995 395.303 666.454 C 395.303 652.218 390.32 650.083 334.803 644.389 L 274.303 637.983 L 274.303 655.777 "/>
</g>
<g id="">
<path style="fill:rgb(0,0,0);" d="M 649.403 659.336 C 625.914 679.977 589.614 682.824 576.803 665.742 C 571.108 657.201 564.703 655.777 556.873 660.048 C 545.485 666.454 493.526 742.613 497.797 746.883 C 499.22 747.595 529.826 753.289 566.838 759.695 L 633.744 770.371 L 682.144 747.595 C 708.479 734.783 729.832 722.683 729.832 720.548 C 729.832 708.448 685.703 641.542 677.873 641.542 C 673.603 641.542 660.079 650.083 649.403 659.336 "/>
</g>
</g>
</g>

</svg>